<svg id="Layer_1" data-name="Layer 1" xmlns="http://www.w3.org/2000/svg" viewBox="0 0 355.75 241.39"><defs><style>.cls-1,.cls-3,.cls-8{fill:#231f20;}.cls-2,.cls-4,.cls-5,.cls-7{fill:#fff;}.cls-2,.cls-5,.cls-7,.cls-8{stroke:#231f20;}.cls-2,.cls-5,.cls-7{stroke-linejoin:round;}.cls-2{stroke-width:1.74px;}.cls-3,.cls-6{opacity:0.6;}.cls-5{stroke-linecap:round;}.cls-5,.cls-7{stroke-width:1.16px;}.cls-8{stroke-miterlimit:10;}</style></defs><path class="cls-1" d="M517,417.34c-1.78-.36-14.91-3.25-21.87-16.23-7.12-13.3-1.85-26.15-1.16-27.75a43.81,43.81,0,0,0,4.43,18.08,43.26,43.26,0,0,0,6,9.07q1.2-5.81,2.41-11.61a94.94,94.94,0,0,0,6.37,20.68C514.35,412.38,515.65,415,517,417.34Z" transform="translate(-267.22 -175.95)"/><path class="cls-1" d="M480.63,413.74A24.25,24.25,0,0,1,477.48,395a15.55,15.55,0,0,0-8.2,7.28,14.72,14.72,0,0,0-1.54,6,10.74,10.74,0,0,0,4.5,4.76A11,11,0,0,0,480.63,413.74Z" transform="translate(-267.22 -175.95)"/><path class="cls-1" d="M376,414.19c1.79-.34,14.95-3.12,22-16,7.25-13.23,2.09-26.13,1.42-27.74a43.29,43.29,0,0,1-10.66,27.06q-1.15-5.82-2.32-11.63A94.8,94.8,0,0,1,380,406.46C378.7,409.25,377.38,411.82,376,414.19Z" transform="translate(-267.22 -175.95)"/><path class="cls-1" d="M412.41,410.91a24.28,24.28,0,0,0,3.31-18.7,15.54,15.54,0,0,1,8.14,7.35,14.55,14.55,0,0,1,1.48,6,10.64,10.64,0,0,1-4.54,4.71A11,11,0,0,1,412.41,410.91Z" transform="translate(-267.22 -175.95)"/><path class="cls-1" d="M450.65,392.51c-.18.12-.68-.47-1.59-1.51-.34-.37-.69-.78-1.1-1.25a51.7,51.7,0,0,0-5.28-5,43.42,43.42,0,0,0-7.54-5c-14.12-7.31-10.85-2-21.74-12-9.61-8.86-5.75-18.83-17-33.48-8.82-11.53-13.3-8.63-21.52-18.71-11.58-14.22-8.86-40.77-5.9-53.22,4.24-17.83,14.71-20.65,9.56-32.66-1.44-3.33-10.76-2.1-27.77.4-19.25,2.83-23.16,3.46-27.15.8-5.84-3.94-8-12.85-5.17-18.91,4-8.46,16.49-5.39,23.76-15.47,3.59-5,3.95-11,3.57-15.6,6.9,9,5.64,12.51,4.3,15.4a13.24,13.24,0,0,1-2.47,3.53c-2.33,2.38-6.13,4.75-13.11,9.46-5.21,3.5-10.63,6.09-10.18,10a5.41,5.41,0,0,0,1.71,3.16c.16.16.35.32.52.47a16.94,16.94,0,0,0,4.64,2.7,7,7,0,0,0,.85.28c8.69,2.91,14.61-3.44,30-6.1,7-1.2,19.6-2.8,25.71,4.59,3.6,4.32,4,10,3.19,12.28-3.8,10.36-11.31,13.55-14.46,26-3.86,15.21-3.78,35.12,4.67,47.51s15.64,10.55,25.21,24.26c8.07,11.6,3.77,15,11.78,24.14,8.46,9.58,17.46,10.77,25.55,20.44a39.8,39.8,0,0,1,5.27,8.2,21.82,21.82,0,0,1,1.09,2.62C450.69,391.37,450.86,392.39,450.65,392.51Z" transform="translate(-267.22 -175.95)"/><path class="cls-1" d="M446.26,176.8v.2c0,3.88,0,7.74,0,11.62v0c-.7,0-1.37,0-2,0s-1.37,0-2,.05a100.37,100.37,0,0,0-12.77,1.18c-3.47.53-11.52,1.83-11.65,4.06,0,.44.25.62,1.83,2.55,2,2.46,3,3.67,2.94,4.06-.41,2.13-14.63.21-24.16.66-8.86.41-21,3.2-35.37,13.69a47.92,47.92,0,0,1,16.56-13.61,48.68,48.68,0,0,1,26.26-4.82c-21.83-7.32-33-4.3-39.12.39-7.25,5.52-8.45,14-19.65,22a48.85,48.85,0,0,1-15,7.09c-.63.18-1.23.35-1.8.48-1.24-1.15-2.45-2.3-3.69-3.46-.17-.15-.36-.31-.52-.47A55,55,0,0,0,348.68,204c-.36-1.38-.69-2.77-1-4.15v0q-.93-9.49-1.83-18.93a24.14,24.14,0,0,1,6,5.82,25.52,25.52,0,0,1,3.6,7.31,44,44,0,0,1,50.79-7.34,107.17,107.17,0,0,1,29.74-8.91c1.94-.28,3.84-.52,5.69-.68.79-.06,1.56-.13,2.32-.17S445.49,176.84,446.26,176.8Z" transform="translate(-267.22 -175.95)"/><path class="cls-1" d="M373.71,213.22c10.54-7.14,19.23-8.74,25.28-8.85,11.13-.2,12.61,4.65,21.7,2.52,6.86-1.61,12.35-5.84,22.89-5.52,1,0,1.76.09,2.26.13.05,1.95.11,3.89.17,5.83a96.42,96.42,0,0,0-12,.8c-8.52,1.12-10.5,2.57-15.83,3.07-9.34.88-12-2.74-20.75-3.52C391.91,207.19,383.91,207.8,373.71,213.22Z" transform="translate(-267.22 -175.95)"/><path class="cls-1" d="M408.68,216.29a17.9,17.9,0,0,1,5.09-1.91c5-1.06,8.92.35,16.58,3,2.59.9,7.47,2.61,14.69,5.1l.21,5.42a120.41,120.41,0,0,1-17.19-7.4c-3.1-1.64-6.58-3.67-11.77-4.35A27.25,27.25,0,0,0,408.68,216.29Z" transform="translate(-267.22 -175.95)"/><path class="cls-1" d="M391.21,217.32a20.36,20.36,0,0,1,8.37,14.22,34.34,34.34,0,0,1,36.91,1.93A31.9,31.9,0,0,0,404.8,223.1a16,16,0,0,0-13.59-5.78Z" transform="translate(-267.22 -175.95)"/><path class="cls-1" d="M403.31,234.61c.57-3.19,9.3-4.69,15.81-3.86A27.92,27.92,0,0,1,434.23,238c-1.88,1.48-9.12,6.82-18.13,5.3C409.66,242.18,402.76,237.65,403.31,234.61Z" transform="translate(-267.22 -175.95)"/><path class="cls-1" d="M434.23,238a30.44,30.44,0,0,1-9.65,16.95c-2.35,2-7.85,6.82-16.13,6.83A23.38,23.38,0,0,1,394,256.49a18.24,18.24,0,0,0,11.54-.89,17.92,17.92,0,0,0,6.66-5,7.51,7.51,0,0,1-7.81-1.26,32.72,32.72,0,0,0,17.14-5.88Z" transform="translate(-267.22 -175.95)"/><path class="cls-1" d="M434.23,238a29.94,29.94,0,0,1,6,15.76,29.63,29.63,0,0,1-2,13.1,10.86,10.86,0,0,0,2.56,7.35,10.72,10.72,0,0,0,5.79,3.41l.18,9.85a19.19,19.19,0,0,1-10.26-4.33,19.52,19.52,0,0,1-6.52-11.25,37.68,37.68,0,0,0,4.94-13,38.27,38.27,0,0,0-1.26-18.27Z" transform="translate(-267.22 -175.95)"/><path class="cls-1" d="M429.92,271.86a20.52,20.52,0,0,1-3.76-5.12c-1.27-2.49-1.6-4.45-2.08-4.4s-.8,2.6-.67,4.86c.2,3.79,2.24,4.57,1.86,7.27-.19,1.38-.69,1.37-1.48,3.79-.65,2-1.41,3-1.5,4.17-1.06-1.31-1.8-3.07-2.68-6.61a19.2,19.2,0,0,1-.59-7.06c-2.07,3.79-2.56,6.6-2.37,8.7.22,2.43,1.18,4.84-.11,7.21-.54,1-1.45,1-2,1.43a23.34,23.34,0,0,1-.89-2.54c-.27-1.21-.12-2.64-.35-2.61-.45.06-1.39,3.33-1.05,5.71s1.68,6.7,3.85,7.81c.93.47,10.84-3.86,17.63-14.18Z" transform="translate(-267.22 -175.95)"/><path class="cls-1" d="M417.05,304.82a60.27,60.27,0,0,1-19.95-38.43,31.49,31.49,0,0,0-1.7,11.11,32,32,0,0,0,3.92,14.33,30.91,30.91,0,0,1-7.71-8.11c-6.66-10.25-5-21.37-4.38-24.59a31.34,31.34,0,0,0-6.08,9.84,31.82,31.82,0,0,0-1.66,16.32,43.6,43.6,0,0,1-3.05-6.52,42.64,42.64,0,0,1-2.31-9.28L373.29,292l4.68,3.32a20.8,20.8,0,0,0,10.68,12,81.24,81.24,0,0,1-2-22,32.07,32.07,0,0,0,30.37,19.49Z" transform="translate(-267.22 -175.95)"/><path class="cls-1" d="M398.13,307.13a46.67,46.67,0,0,1,12,12.94c3.64,5.92,4.54,10.54,8.74,27.15,1.3,5.13,2.89,11.34,4.77,18.41l8.76,4.36q-6.34-23.87-12.7-47.73a29.61,29.61,0,0,0-7.32-8.82A30.05,30.05,0,0,0,398.13,307.13Z" transform="translate(-267.22 -175.95)"/><path class="cls-1" d="M420.62,309.18a25.29,25.29,0,0,1,9.43,5.59c3.23,3.07,4.73,6.24,6.27,9.63,4.73,10.42,7.1,15.63,8.95,21.51a146.66,146.66,0,0,1,5.28,23.39,40.2,40.2,0,0,0-3.18-6.44c-2.95-4.88-5.73-7.17-7.64-9.3-4.78-5.32-3.84-9.32-10.47-30.86a28.44,28.44,0,0,0-8.64-13.52Z" transform="translate(-267.22 -175.95)"/><path class="cls-1" d="M425.89,299.9a26.36,26.36,0,0,1,12.59,2.58,18.22,18.22,0,0,1,7.64,5.95A17.34,17.34,0,0,1,449,319.85a40.39,40.39,0,0,0-5.53-7.94,43,43,0,0,0-9.77-8A52.14,52.14,0,0,0,425.89,299.9Z" transform="translate(-267.22 -175.95)"/><path class="cls-1" d="M426.52,295.37a18.72,18.72,0,0,1,8.83.37c2.68.79,4.19,2,7.55,2.55a19.4,19.4,0,0,0,5.27.16l0-5.4c-3.85.12-7,0-9.15-.08-3.32-.16-5.34-.41-8.07.36A15.72,15.72,0,0,0,426.52,295.37Z" transform="translate(-267.22 -175.95)"/><path class="cls-1" d="M566.8,224.74c-3.83,2.87-7.79,2.43-27.16.58-17.11-1.64-26.49-2.4-27.75,1-4.52,12.26,6.06,14.55,11.2,32.14,3.58,12.29,7.64,38.66-3.2,53.45-7.7,10.48-12.3,7.81-20.54,19.77-10.46,15.2-6.1,25-15.25,34.3-10.35,10.55-7.37,5.06-21.11,13.07a48.91,48.91,0,0,0-7.27,5.39,69.5,69.5,0,0,0-5.6,5.39c-.41.45-.77.83-1.06,1.17-.9,1-1.4,1.47-1.59,1.36s-.05-1.11.49-2.61a24.52,24.52,0,0,1,1.07-2.54,43.23,43.23,0,0,1,5.34-8.47c8-10,16.67-11.92,24.46-21.71,7.57-9.5,3.09-12.71,10.55-24.7,8.86-14.18,16.08-12.55,24-25.5s6.88-32.69,2.25-47.69c-3.79-12.24-11.46-15-15.75-25.2-.94-2.2-.81-7.92,2.54-12.42,5.73-7.69,18.36-6.73,25.44-5.89,15.54,1.88,21.8,7.92,30.31,4.57a5.66,5.66,0,0,0,.83-.32,17,17,0,0,0,4.55-2.93l.47-.5a5.46,5.46,0,0,0,1.55-3.24c.24-3.93-5.32-6.25-10.67-9.48-7.22-4.35-11.15-6.53-13.58-8.79a12.15,12.15,0,0,1-2.64-3.39c-1.49-2.82-2.92-6.24,3.51-15.6-.14,4.64.5,10.62,4.33,15.4,7.78,9.7,20.13,6,24.52,14.24C574.18,211.51,572.43,220.51,566.8,224.74Z" transform="translate(-267.22 -175.95)"/><path class="cls-1" d="M564,216.45l-.47.5L560,220.6l-1.85-.4a47.84,47.84,0,0,1-15.32-6.32c-11.6-7.42-13.25-15.78-20.74-20.94-6.41-4.36-17.68-6.82-39.09,1.6A48.73,48.73,0,0,1,509.46,198a48.21,48.21,0,0,1,17.21,12.76c-14.88-9.75-27.15-11.92-36-11.88-9.52,0-23.64,2.66-24.16.56-.08-.39.84-1.65,2.73-4.2,1.48-2,1.75-2.21,1.72-2.65-.24-2.22-8.37-3.11-11.86-3.46a98.79,98.79,0,0,0-12.79-.53c-.65,0-1.32,0-2,0s-1.35,0-2,.07v0c-.22-3.87-.41-7.72-.6-11.6v-.21c.76,0,1.53,0,2.32,0s1.53,0,2.32.05c1.86.07,3.77.21,5.75.39a107.33,107.33,0,0,1,30.12,7.39,44.08,44.08,0,0,1,51.13,4.77,24.19,24.19,0,0,1,3.22-7.49,23.84,23.84,0,0,1,5.68-6.11q-.46,9.48-.87,19v0c-.29,1.4-.56,2.8-.82,4.2a54.55,54.55,0,0,0,10.78,10.38A53.67,53.67,0,0,0,564,216.45Z" transform="translate(-267.22 -175.95)"/><path class="cls-1" d="M515.92,209.62c-10.88-6.6-19.64-7.75-25.69-7.56-11.12.36-12.35,5.28-21.55,3.61-6.93-1.25-12.63-5.2-23.14-4.35-1,.08-1.75.18-2.24.25l.12,5.83a94.65,94.65,0,0,1,12.07.19c8.57.68,10.61,2,16,2.26,9.37.41,11.79-3.35,20.53-4.57C497.45,204.52,505.46,204.72,515.92,209.62Z" transform="translate(-267.22 -175.95)"/><path class="cls-1" d="M481.16,214.45A18.77,18.77,0,0,0,476,212.8c-5.1-.81-9,.84-16.41,3.88-2.8,1.14-7.76,3.15-14.53,5.84l.21,5.42A123.3,123.3,0,0,0,462,219.68c3-1.8,6.39-4,11.54-4.94A27.26,27.26,0,0,1,481.16,214.45Z" transform="translate(-267.22 -175.95)"/><path class="cls-1" d="M498.65,214.6A20.28,20.28,0,0,0,491,229.22a34.39,34.39,0,0,0-36.77,3.8,32.5,32.5,0,0,1,15.93-11.08,32.14,32.14,0,0,1,15.2-.88,16,16,0,0,1,13.27-6.46Z" transform="translate(-267.22 -175.95)"/><path class="cls-1" d="M487.45,232.47c-.74-3.15-9.53-4.2-16-3.05a28,28,0,0,0-14.72,8c1.95,1.38,9.45,6.35,18.37,4.37C481.49,240.36,488.15,235.49,487.45,232.47Z" transform="translate(-267.22 -175.95)"/><path class="cls-1" d="M456.74,237.4a30.43,30.43,0,0,0,10.49,16.44c2.45,1.92,8.19,6.41,16.46,6a23.26,23.26,0,0,0,14.18-6,18.12,18.12,0,0,1-11.57-.3,17.84,17.84,0,0,1-6.9-4.69,7.52,7.52,0,0,0,7.73-1.65,33,33,0,0,1-10.72-1.81,32.06,32.06,0,0,1-6.7-3.21Z" transform="translate(-267.22 -175.95)"/><path class="cls-1" d="M456.74,237.4a29.91,29.91,0,0,0-5.18,16,29.54,29.54,0,0,0,2.7,13,10.86,10.86,0,0,1-2.18,7.47,10.64,10.64,0,0,1-5.62,3.7l.33,9.85a19.21,19.21,0,0,0,10-4.85A19.43,19.43,0,0,0,462.75,271,37.67,37.67,0,0,1,457.5,240C457.24,239.11,457,238.26,456.74,237.4Z" transform="translate(-267.22 -175.95)"/><path class="cls-1" d="M462.75,271a20.42,20.42,0,0,0,3.5-5.31c1.15-2.55,1.38-4.52,1.86-4.49s.92,2.55.91,4.82c0,3.79-2,4.67-1.49,7.35.26,1.37.76,1.33,1.68,3.71.75,2,1.56,2.94,1.7,4.09,1-1.36,1.64-3.15,2.34-6.73a19.37,19.37,0,0,0,.23-7.09c2.26,3.68,2.9,6.47,2.81,8.57-.1,2.44-.93,4.89.48,7.2.58,1,1.5,1,2.07,1.32a21,21,0,0,0,.76-2.58c.22-1.22,0-2.64.22-2.62.46,0,1.57,3.25,1.34,5.64s-1.34,6.79-3.45,8c-.9.52-11-3.3-18.32-13.27Z" transform="translate(-267.22 -175.95)"/><path class="cls-1" d="M477.28,303.3a60.27,60.27,0,0,0,18-39.4,31.46,31.46,0,0,1-.94,25.52,30.65,30.65,0,0,0,7.3-8.48c6.13-10.58,3.9-21.6,3.13-24.79a31.28,31.28,0,0,1,6.56,9.52,31.74,31.74,0,0,1,2.49,16.22,43.38,43.38,0,0,0,4.56-16.05q1,11.21,2,22.41l-4.51,3.54a20.9,20.9,0,0,1-4.18,7.8,20.68,20.68,0,0,1-5.87,4.76,82,82,0,0,0,.85-22.06,32.08,32.08,0,0,1-29.34,21Z" transform="translate(-267.22 -175.95)"/><path class="cls-1" d="M496.29,304.64A46.58,46.58,0,0,0,485,318.17c-3.34,6.1-4,10.76-7.36,27.56-1,5.19-2.31,11.47-3.82,18.63l-8.53,4.8,10.26-48.32a29.63,29.63,0,0,1,20.77-16.2Z" transform="translate(-267.22 -175.95)"/><path class="cls-1" d="M473.94,307.83a25.28,25.28,0,0,0-9.14,6.06c-3.08,3.23-4.42,6.47-5.78,9.93-4.19,10.65-6.29,16-7.84,21.94a147,147,0,0,0-4.1,23.63,41.69,41.69,0,0,1,2.85-6.6c2.71-5,5.36-7.44,7.17-9.67,4.5-5.55,3.36-9.51,8.89-31.35a28.86,28.86,0,0,1,3.35-8.19A28.34,28.34,0,0,1,473.94,307.83Z" transform="translate(-267.22 -175.95)"/><path class="cls-1" d="M468.2,298.83A26.46,26.46,0,0,0,455.75,302a18.28,18.28,0,0,0-7.32,6.34,17.31,17.31,0,0,0-2.3,11.54,40.08,40.08,0,0,1,5.12-8.21,43.26,43.26,0,0,1,9.35-8.46A51.88,51.88,0,0,1,468.2,298.83Z" transform="translate(-267.22 -175.95)"/><path class="cls-1" d="M467.34,294.33a18.93,18.93,0,0,0-8.8.82c-2.64.93-4.08,2.19-7.41,2.93a19.72,19.72,0,0,1-5.25.43l-.32-5.4c3.85-.07,7-.32,9.14-.53,3.3-.33,5.31-.68,8.08-.06A16,16,0,0,1,467.34,294.33Z" transform="translate(-267.22 -175.95)"/><path class="cls-1" d="M620.21,277.94V278c-.05.35-.09.67-.12,1-.84,3.5-6.11,5-8.15,5.56-15.05,4.42-29.48,13.18-34.24,16.08-9,5.45-11.71,9.21-13.15,11.71A24.57,24.57,0,0,0,561,325.82c.41,7.8,4.84,8.85,5.69,17,.28,2.74,1.08,10.44-4,14.8-4.79,4.06-12.93,3.68-17.16-.11l0,0c-2.13-1.93-3.08-4.58-3.89-7.15l-.21-.65a27.48,27.48,0,0,1-1.22-8.18,2.11,2.11,0,0,1,0-.35c.17-13.14,9.19-21.63,5.81-26.83a4.91,4.91,0,0,0-1.28-1.32,9.29,9.29,0,0,0-4.29-1.54,74.55,74.55,0,0,1,19.24-19.9c11.41-8,26.76-13.88,37.7-13.64a78.18,78.18,0,0,0,13.46-.71,75.66,75.66,0,0,0,8.73-1.75A5.82,5.82,0,0,1,620.21,277.94Z" transform="translate(-267.22 -175.95)"/><path class="cls-1" d="M540.77,369.71A23,23,0,0,1,534,380.65c-9.76,8.65-23.41,4.64-24.4,4.34a12.13,12.13,0,0,0,4.15-1.28,11.86,11.86,0,0,0,3.33-2.59,27.61,27.61,0,0,0,23.65-11.41Z" transform="translate(-267.22 -175.95)"/><path class="cls-1" d="M541.26,298.3c3.26-7.19,11-20.81,21-31C570,259.41,575,256.88,581,253.47c-4.37,2.16-6.65,8.49-6.1,11.28.49,2.41,6.55,7.25,10,9.83-3.68-1.49-9.18-5.5-17.23-3C555.77,275.26,541.61,297.24,541.26,298.3Z" transform="translate(-267.22 -175.95)"/><path class="cls-1" d="M599.07,252.4c-1.5,3.33,10,5.23,14.62,7.74,1.73.94,5.22,11.07,5.28,15.42.27-.79-2.13-16.49-3.41-17.77C611.22,253.44,600.15,250,599.07,252.4Z" transform="translate(-267.22 -175.95)"/><path class="cls-1" d="M530.85,232.27a35.18,35.18,0,0,0,35.65,19.67q-6-2.83-12.27-6-5.26-2.7-10.22-5.41a63.4,63.4,0,0,1,21.41,5.66l.33,2a7.35,7.35,0,0,1,2.25-2.45,7.46,7.46,0,0,1,4-1.26l-5.11-.57a46.84,46.84,0,0,0-15.1-5.6c-4.15-.73-7.32-.66-12.47-2.27A43.84,43.84,0,0,1,530.85,232.27Z" transform="translate(-267.22 -175.95)"/><path class="cls-1" d="M603.83,283.41a7.54,7.54,0,0,1,3.94-2.55,7.63,7.63,0,0,1,5.42.69,28.86,28.86,0,0,1-2.34,10.14,29.6,29.6,0,0,1-10.92,12.82c.89-3.15,1.72-6.62,2.42-10.37S603.53,286.72,603.83,283.41Z" transform="translate(-267.22 -175.95)"/><path class="cls-2" d="M589.55,283.44a10.31,10.31,0,0,1,6.75-4.3,9.51,9.51,0,0,1,4.48.48,35,35,0,0,1-1.45,11.67A35.56,35.56,0,0,1,590.54,306a97.62,97.62,0,0,1-1-22.53Z" transform="translate(-267.22 -175.95)"/><path class="cls-3" d="M557.25,357.92q2.61-1.83,5.27-3.77,4.23-3.09,8.18-6.17c-2.33,1.24-4.8,2.66-7.36,4.32-2.17,1.4-4.16,2.8-6,4.18Z" transform="translate(-267.22 -175.95)"/><path class="cls-4" d="M547.82,307a31.86,31.86,0,0,1,4.54,10.28c1.23,5.58-2.52,9-3.48,15-.78,4.91.36,11.09,4.24,14.83,2.57,2.47,7.18,4.67,9.87,3,2.08-1.31,2.25-4.44,2.28-5,.43-8-9.61-10.43-10.06-18.88-.23-4.28,2.22-5,2-9.87-.27-5.42-3.54-9.68-6.26-12.43a7.68,7.68,0,0,0-3.12,3.13Z" transform="translate(-267.22 -175.95)"/><path class="cls-1" d="M621.5,267.19c-.57,4.34-1,8-1.29,10.75V278c-.05.35-.09.67-.12,1-.16-1-.34-2.16-.51-3.53-.3-2.35-.57-5.2-.68-8.45-.32-8.78.91-9.45,0-11.92C616.13,247.84,604.4,251,586.6,243c-11.05-5-10.93-8.16-20.4-10.46-8.07-2-9.42,0-20.22-2-11.14-2.15-13.16-4.78-19.89-4.64-4,.09-9.82,1.36-16.91,7.22-.77,1.67,3.34,7.78,8.23,15,1.55,2.27,3.87,10.56,4.42,14.81a20.39,20.39,0,0,0,6-2,21.06,21.06,0,0,0,4.56-3.15c-1.82,3.8-4.91,9.79-6.29,17.66-2.78,16.06-.06,19.73-4.32,31.06-3.43,9.05-6.72,9-13.1,22.51a113.43,113.43,0,0,0-6.07,15.87,57.23,57.23,0,0,0,24-26.77,109.75,109.75,0,0,1-18.94,39.85,43.7,43.7,0,0,0,11-5.49,44.42,44.42,0,0,0,8.48-7.61,126.6,126.6,0,0,1-5,11.91,112.33,112.33,0,0,1-5.84,10.79c2.14-.14,4.67.07,7.89-1.3a25.71,25.71,0,0,0,11.07-9.2,49.35,49.35,0,0,1-14.5,28.26c17.86,2.18,25.17-1.72,28.47-5.89s7-14.2,7-14.2c-9-5.91-9.54-6.42-9.54-6.42a14.5,14.5,0,0,1-1.16-1.19l0,0a20.06,20.06,0,0,1-3.89-7.15,31.45,31.45,0,0,1-1.41-9.18,29.59,29.59,0,0,1,.33-5.54c1.21-7.87,5-10.12,4.71-18.3a24.37,24.37,0,0,0-.51-4.31,28.77,28.77,0,0,0-1.36-4.74,20.15,20.15,0,0,1,6.88,9.92c2,7.13-2.24,10.49-1.66,17.43.84,10.57,11.36,11.55,14.09,22,2.64,10.18-4.22,21.22-10.17,26.9-10.48,10-27.34,12.1-42.52,5.35a53.6,53.6,0,0,0,7.6-9.54,52.75,52.75,0,0,0,4.63-9.4,36.26,36.26,0,0,1-17.46,1.84,43.55,43.55,0,0,0,5-6,47.28,47.28,0,0,0,3.75-6.22,51.79,51.79,0,0,1-7,2.5,49.35,49.35,0,0,1-8.52,1.6,44.64,44.64,0,0,0,9.33-16.64c-4.25,1.2-8.53,2.38-12.78,3.56a136.72,136.72,0,0,1,9-25.53c5.44-11.58,8.65-14,11.56-23.69a66.14,66.14,0,0,0,2.6-24.19c-.87-10.75-4.3-18.93-7.47-26.36-6.86-16.05-12.43-19.56-10.31-25.13,2.47-6.5,13.07-9.39,20.48-9.55,7.06-.15,8.83,2.18,18.72,4.44,14,3.2,16-.06,26.93,2.41,11.51,2.61,10,6.72,27.12,14.77,17.52,8.24,27.74,7.95,29.61,15.17C623.18,255.23,622.92,255.51,621.5,267.19Z" transform="translate(-267.22 -175.95)"/><path class="cls-2" d="M558,354.14a4.34,4.34,0,0,0,.26,3.32,4.53,4.53,0,0,0,3.5,2.2,49.79,49.79,0,0,0,10.09-13.14c-2.4,1.08-5,2.35-7.62,3.83C562,351.61,559.92,352.88,558,354.14Z" transform="translate(-267.22 -175.95)"/><path class="cls-2" d="M548.63,352a5.27,5.27,0,0,0,.73,5.9,5.33,5.33,0,0,0,4.11,1.52,29.71,29.71,0,0,0,5.72-6,30,30,0,0,0,4.6-9.7c-2.18,1-4.43,2.17-6.72,3.4C554.07,348.78,551.26,350.41,548.63,352Z" transform="translate(-267.22 -175.95)"/><path class="cls-1" d="M548,354.16a51.25,51.25,0,0,0,9.74-5.18c3.18-2.16,6.37-4.86,6.15-5.18-.07-.1-.56,0-6.72,3.4-3.56,2-6.47,3.69-8.44,4.85Z" transform="translate(-267.22 -175.95)"/><path class="cls-1" d="M592.27,280.74c-.38,4.28-1,7.63-1.28,13.09-.3,5.79-.26,8.16-.45,12.14a80,80,0,0,1-.65-23Z" transform="translate(-267.22 -175.95)"/><path class="cls-1" d="M270.16,280.58v.1c0,.34.1.67.13,1,.87,3.5,6.15,4.92,8.2,5.5,15.08,4.3,29.58,12.95,34.36,15.81,9,5.37,11.79,9.11,13.25,11.61A24.57,24.57,0,0,1,329.72,328c-.35,7.8-4.77,8.88-5.56,17.06-.25,2.75-1,10.46,4.15,14.78,4.82,4,13,3.58,17.16-.25l0,0c2.12-1.94,3.05-4.6,3.84-7.18.07-.21.13-.45.2-.66a27.37,27.37,0,0,0,1.16-8.18,1.38,1.38,0,0,0,0-.35c-.28-13.14-9.36-21.55-6-26.78a4.9,4.9,0,0,1,1.27-1.34,9.34,9.34,0,0,1,4.28-1.57,74.92,74.92,0,0,0-19.4-19.75c-11.47-7.91-26.87-13.66-37.81-13.34a77.36,77.36,0,0,1-13.47-.59,74.69,74.69,0,0,1-8.74-1.69A6.07,6.07,0,0,0,270.16,280.58Z" transform="translate(-267.22 -175.95)"/><path class="cls-1" d="M350.33,371.72a22.87,22.87,0,0,0,6.81,10.88c9.84,8.58,23.45,4.46,24.44,4.15a12,12,0,0,1-4.16-1.24,11.83,11.83,0,0,1-3.35-2.57,27.6,27.6,0,0,1-23.74-11.22Z" transform="translate(-267.22 -175.95)"/><path class="cls-1" d="M349.27,300.32c-3.32-7.17-11.17-20.72-21.2-30.81-7.8-7.85-12.86-10.35-18.92-13.7,4.39,2.12,6.73,8.44,6.19,11.23-.46,2.41-6.49,7.29-9.94,9.9,3.66-1.51,9.13-5.57,17.2-3.14C334.58,277.4,348.91,299.26,349.27,300.32Z" transform="translate(-267.22 -175.95)"/><path class="cls-1" d="M291.1,254.88c1.52,3.32-10,5.31-14.56,7.86-1.72.95-5.14,11.11-5.16,15.46-.27-.79,2-16.51,3.27-17.8C279,256,290,252.48,291.1,254.88Z" transform="translate(-267.22 -175.95)"/><path class="cls-1" d="M359.15,234.2a35.16,35.16,0,0,1-35.48,20q6-2.88,12.21-6.11,5.25-2.73,10.18-5.49a63.52,63.52,0,0,0-11.68,2.19,62.65,62.65,0,0,0-9.68,3.64c-.11.66-.21,1.31-.32,2a7.22,7.22,0,0,0-2.27-2.42,7.52,7.52,0,0,0-4.06-1.24l5.11-.61a46.8,46.8,0,0,1,15.06-5.72c4.14-.76,7.31-.71,12.44-2.37A42.92,42.92,0,0,0,359.15,234.2Z" transform="translate(-267.22 -175.95)"/><path class="cls-1" d="M286.58,285.93a7.51,7.51,0,0,0-3.95-2.52,7.66,7.66,0,0,0-5.42.73,28.9,28.9,0,0,0,2.42,10.12,29.59,29.59,0,0,0,11,12.73c-.91-3.14-1.77-6.6-2.5-10.35S286.91,289.23,286.58,285.93Z" transform="translate(-267.22 -175.95)"/><path class="cls-5" d="M300.86,285.84a10.22,10.22,0,0,0-6.78-4.24,9.54,9.54,0,0,0-4.48.52,35.06,35.06,0,0,0,10.45,26.26A97,97,0,0,0,301.14,296,94.59,94.59,0,0,0,300.86,285.84Z" transform="translate(-267.22 -175.95)"/><g class="cls-6"><path class="cls-1" d="M333.76,360.06c-1.76-1.2-3.52-2.45-5.3-3.72q-4.26-3.06-8.23-6.1c2.34,1.21,4.82,2.62,7.39,4.25,2.18,1.38,4.18,2.77,6,4.13C333.67,359.1,333.71,359.58,333.76,360.06Z" transform="translate(-267.22 -175.95)"/></g><path class="cls-4" d="M342.78,309a31.4,31.4,0,0,0-3.56,7.19,27,27,0,0,0-.89,3.13c-1.19,5.59,2.58,9,3.59,15,.82,4.9-.27,11.09-4.12,14.86-2.55,2.5-7.14,4.73-9.85,3.05-2.09-1.3-2.28-4.43-2.32-5-.49-8,9.53-10.51,9.91-19,.19-4.28-2.26-5-2.06-9.86.22-5.42,3.45-9.7,6.16-12.48a7.71,7.71,0,0,1,3.14,3.11Z" transform="translate(-267.22 -175.95)"/><path class="cls-1" d="M268.79,269.84c.6,4.34,1,8,1.37,10.74v.1c0,.34.1.67.13,1,.15-1,.33-2.16.48-3.53.28-2.35.53-5.21.62-8.46.25-8.78-1-9.44-.08-11.91,2.69-7.31,14.45-4.26,32.18-12.41,11-5.06,10.86-8.24,20.32-10.63,8.06-2,9.42,0,20.2-2.2,11.12-2.23,13.12-4.87,19.85-4.79,4,0,9.84,1.28,17,7.09.78,1.66-3.27,7.81-8.11,15-1.53,2.29-3.78,10.6-4.3,14.85a20.3,20.3,0,0,1-6-2,20.7,20.7,0,0,1-4.58-3.11c1.85,3.79,5,9.75,6.43,17.61,2.9,16,.22,19.73,4.57,31,3.49,9,6.79,9,13.27,22.41a113.1,113.1,0,0,1,6.2,15.82,57.43,57.43,0,0,1-13.61-10.67,56.57,56.57,0,0,1-10.56-15.91,109.75,109.75,0,0,0,19.25,39.7,44.43,44.43,0,0,1-19.57-12.95,122.15,122.15,0,0,0,5.1,11.87,109.58,109.58,0,0,0,5.92,10.74c-2.14-.12-4.67.11-7.91-1.23A25.65,25.65,0,0,1,355.77,359a49.87,49.87,0,0,0,4.33,13.89,49,49,0,0,0,10.39,14.25c-17.84,2.32-25.18-1.51-28.52-5.66s-7.14-14.15-7.14-14.15c8.94-6,9.49-6.49,9.49-6.49a14.52,14.52,0,0,0,1.15-1.2l0,0a20.33,20.33,0,0,0,3.84-7.18,31.44,31.44,0,0,0,1.33-9.19,30.31,30.31,0,0,0-.37-5.54c-1.28-7.86-5.06-10.08-4.86-18.26a24.59,24.59,0,0,1,.48-4.32,28.33,28.33,0,0,1,1.32-4.75,20.19,20.19,0,0,0-6.8,10c-1.94,7.14,2.32,10.47,1.8,17.42-.76,10.57-11.27,11.64-13.92,22.11C325.76,370,332.7,381,338.7,386.66c10.56,9.89,27.43,11.87,42.56,5a52.78,52.78,0,0,1-12.39-18.83,36.32,36.32,0,0,0,17.48,1.7,45.1,45.1,0,0,1-5.07-5.92,47.35,47.35,0,0,1-3.79-6.19,52.26,52.26,0,0,0,7,2.45,49.61,49.61,0,0,0,8.54,1.52,43.89,43.89,0,0,1-5.88-8.21,44.38,44.38,0,0,1-3.58-8.35c4.26,1.17,8.54,2.31,12.8,3.46a134,134,0,0,0-9-25.38c-5.39-11.34-8.54-13.69-11.51-23.33A69.12,69.12,0,0,1,373,280.83c.65-11.71,4.24-20.71,6.88-27.19,7-14.76,13.16-18.61,10.11-25.21-3.43-7.43-13.08-9.08-20.49-9.17-7.06-.1-8.48,2-18.35,4.29a63.9,63.9,0,0,1-9.39,1.52c-8.88.8-11.38-.82-17.9.92a34.86,34.86,0,0,0-6.63,2.57c-4.42,2.21-6.13,4.32-10.08,6.93a84.58,84.58,0,0,1-10.31,5.75c-17.46,8.38-27.68,8.17-29.49,15.41C267,257.9,267.27,258.18,268.79,269.84Z" transform="translate(-267.22 -175.95)"/><path class="cls-7" d="M333,356.29a4.35,4.35,0,0,1-.24,3.32,4.52,4.52,0,0,1-3.48,2.23,48.57,48.57,0,0,1-4.67-4.9,50.76,50.76,0,0,1-5.53-8.16c2.42,1.06,5,2.31,7.66,3.77C329,353.79,331,355.05,333,356.29Z" transform="translate(-267.22 -175.95)"/><path class="cls-2" d="M342.33,354.1a5,5,0,0,1-4.79,7.45A29.65,29.65,0,0,1,327.1,346c2.19,1,4.45,2.14,6.75,3.35Q338.37,351.69,342.33,354.1Z" transform="translate(-267.22 -175.95)"/><path class="cls-8" d="M343,356.23a51.18,51.18,0,0,1-9.79-5.1C330,349,326.81,346.32,327,346c.07-.11.56,0,6.75,3.35,3.58,2,6.5,3.63,8.47,4.78Z" transform="translate(-267.22 -175.95)"/><path class="cls-1" d="M298.12,283.16c.41,4.28,1.07,7.63,1.39,13.08.34,5.8.32,8.16.54,12.14a80.13,80.13,0,0,0,.47-23Z" transform="translate(-267.22 -175.95)"/></svg>