<?xml version="1.0" encoding="utf-8"?>
<!-- Generator: Adobe Illustrator 26.0.1, SVG Export Plug-In . SVG Version: 6.00 Build 0)  -->
<svg version="1.1" id="Layer_2" xmlns="http://www.w3.org/2000/svg" xmlns:xlink="http://www.w3.org/1999/xlink" x="0px" y="0px"
	 viewBox="0 0 595.28 841.89" style="enable-background:new 0 0 595.28 841.89;" xml:space="preserve">
<g>
	<circle style="fill:none;stroke:#231F20;stroke-width:12;stroke-miterlimit:10;" cx="285.64" cy="408.39" r="162.36"/>
	<path style="fill:none;stroke:#231F20;stroke-width:12;stroke-miterlimit:10;" d="M124.01,423.94
		c14.77-17.81,29.54-35.63,44.32-53.44c0.42-25.21,0.84-50.43,1.26-75.64"/>
	<path style="fill:none;stroke:#231F20;stroke-width:12;stroke-miterlimit:10;" d="M168.33,370.49c17.8,7.94,35.6,15.88,53.4,23.83
		c8.17,24.96,16.35,49.93,24.52,74.89c-9.87,15.09-19.74,30.18-29.62,45.28c-21.57-4.65-43.14-9.31-64.71-13.96"/>
	<path style="fill:none;stroke:#231F20;stroke-width:12;stroke-miterlimit:10;" d="M221.73,394.32
		c21.34-15.55,42.67-31.09,64.01-46.64c2.72-22.35,5.45-44.71,8.17-67.06c-20.07-8.7-40.14-17.4-60.21-26.1"/>
	<path style="fill:none;stroke:#231F20;stroke-width:12;stroke-miterlimit:10;" d="M284.04,346.32
		c21.67,15.89,43.35,31.77,65.02,47.66c-7.94,24.74-15.89,49.48-23.83,74.21c-26.33,0.34-52.65,0.68-78.98,1.02"/>
	<path style="fill:none;stroke:#231F20;stroke-width:12;stroke-miterlimit:10;" d="M349.06,393.97
		c19.74-5.67,39.49-11.35,59.23-17.02c3.39-20.64,6.79-41.29,10.18-61.93"/>
	<path style="fill:none;stroke:#231F20;stroke-width:12;stroke-miterlimit:10;" d="M325.23,468.19
		c12.14,14.87,24.28,29.73,36.43,44.6c-9.55,16.98-19.11,33.97-28.66,50.95"/>
	<path style="fill:none;stroke:#231F20;stroke-width:12;stroke-miterlimit:10;" d="M216.64,514.49
		c10.16,17.22,20.33,34.44,30.49,51.67"/>
	<path style="fill:none;stroke:#231F20;stroke-width:12;stroke-miterlimit:10;" d="M361.66,512.78
		c18.83-3.51,37.65-7.02,56.48-10.53"/>
	<path style="fill:none;stroke:#231F20;stroke-width:12;stroke-miterlimit:10;" d="M408.3,376.95
		c12.89,16.58,25.79,33.15,38.68,49.73"/>
	<path style="fill:none;stroke:#231F20;stroke-width:12;stroke-miterlimit:10;" d="M293.91,280.61c22.5-5.28,45-10.56,67.5-15.85"/>
</g>
</svg>
